<mxfile host="app.diagrams.net" modified="2024-02-09T23:47:56.804Z" agent="Mozilla/5.0 (Macintosh; Intel Mac OS X 10_15_7) AppleWebKit/537.36 (KHTML, like Gecko) Chrome/121.0.0.0 Safari/537.36" etag="SZc-ZHehAWqu05cO9Bac" version="23.1.2" type="device">
  <diagram name="Page-1" id="01F0g8O5-JKZQx9Hn2be">
    <mxGraphModel dx="984" dy="564" grid="1" gridSize="10" guides="1" tooltips="1" connect="1" arrows="1" fold="1" page="1" pageScale="1" pageWidth="850" pageHeight="1100" math="0" shadow="0">
      <root>
        <mxCell id="0" />
        <mxCell id="1" parent="0" />
        <mxCell id="PlozlpM_31YKOJltgeHP-27" value="" style="rounded=0;whiteSpace=wrap;html=1;movable=1;resizable=1;rotatable=1;deletable=1;editable=1;locked=0;connectable=1;" parent="1" vertex="1">
          <mxGeometry x="120" y="240" width="680" height="240" as="geometry" />
        </mxCell>
        <mxCell id="PlozlpM_31YKOJltgeHP-59" value="" style="group;movable=1;resizable=1;rotatable=1;deletable=1;editable=1;locked=0;connectable=1;" parent="1" vertex="1" connectable="0">
          <mxGeometry x="40" y="40" width="760" height="120" as="geometry" />
        </mxCell>
        <mxCell id="PlozlpM_31YKOJltgeHP-23" value="" style="rounded=0;whiteSpace=wrap;html=1;" parent="PlozlpM_31YKOJltgeHP-59" vertex="1">
          <mxGeometry width="760" height="120" as="geometry" />
        </mxCell>
        <mxCell id="PlozlpM_31YKOJltgeHP-24" value="End user applications:" style="text;html=1;strokeColor=none;fillColor=none;align=center;verticalAlign=middle;whiteSpace=wrap;rounded=0;" parent="PlozlpM_31YKOJltgeHP-59" vertex="1">
          <mxGeometry width="140" height="30" as="geometry" />
        </mxCell>
        <mxCell id="PlozlpM_31YKOJltgeHP-51" value="" style="group" parent="PlozlpM_31YKOJltgeHP-59" vertex="1" connectable="0">
          <mxGeometry x="330" y="30" width="160" height="60" as="geometry" />
        </mxCell>
        <mxCell id="PlozlpM_31YKOJltgeHP-63" value="" style="group" parent="PlozlpM_31YKOJltgeHP-51" vertex="1" connectable="0">
          <mxGeometry width="160" height="60" as="geometry" />
        </mxCell>
        <mxCell id="PlozlpM_31YKOJltgeHP-3" value="" style="rounded=1;whiteSpace=wrap;html=1;" parent="PlozlpM_31YKOJltgeHP-63" vertex="1">
          <mxGeometry width="160" height="60" as="geometry" />
        </mxCell>
        <mxCell id="PlozlpM_31YKOJltgeHP-48" value="&lt;font style=&quot;font-size: 15px;&quot;&gt;Overseerr&lt;/font&gt;" style="text;html=1;strokeColor=none;fillColor=none;align=center;verticalAlign=middle;whiteSpace=wrap;rounded=0;" parent="PlozlpM_31YKOJltgeHP-63" vertex="1">
          <mxGeometry x="62.5" y="15" width="85" height="30" as="geometry" />
        </mxCell>
        <mxCell id="PlozlpM_31YKOJltgeHP-4" value="" style="shape=image;verticalLabelPosition=bottom;labelBackgroundColor=default;verticalAlign=top;aspect=fixed;imageAspect=0;image=https://www.myqnap.org/wp-content/uploads/overseerr.png;" parent="PlozlpM_31YKOJltgeHP-63" vertex="1">
          <mxGeometry x="10" y="5" width="50" height="50" as="geometry" />
        </mxCell>
        <mxCell id="dXqFs6aYzmoL6UYL_eIh-1" value="" style="rounded=1;whiteSpace=wrap;html=1;" vertex="1" parent="PlozlpM_31YKOJltgeHP-59">
          <mxGeometry x="540" y="30" width="160" height="60" as="geometry" />
        </mxCell>
        <mxCell id="dXqFs6aYzmoL6UYL_eIh-2" value="&lt;font style=&quot;font-size: 15px;&quot;&gt;Tautulli&lt;/font&gt;" style="text;html=1;strokeColor=none;fillColor=none;align=center;verticalAlign=middle;whiteSpace=wrap;rounded=0;" vertex="1" parent="PlozlpM_31YKOJltgeHP-59">
          <mxGeometry x="602.5" y="45" width="85" height="30" as="geometry" />
        </mxCell>
        <mxCell id="dXqFs6aYzmoL6UYL_eIh-5" value="" style="shape=image;verticalLabelPosition=bottom;labelBackgroundColor=default;verticalAlign=top;aspect=fixed;imageAspect=0;image=https://styles.redditmedia.com/t5_75bbd/styles/communityIcon_dsn6jjf37ja11.png;" vertex="1" parent="PlozlpM_31YKOJltgeHP-59">
          <mxGeometry x="552.5" y="35" width="50" height="50" as="geometry" />
        </mxCell>
        <mxCell id="PlozlpM_31YKOJltgeHP-40" style="edgeStyle=orthogonalEdgeStyle;rounded=1;orthogonalLoop=1;jettySize=auto;html=1;exitX=0.5;exitY=1;exitDx=0;exitDy=0;entryX=0.25;entryY=0;entryDx=0;entryDy=0;curved=0;strokeColor=default;" parent="1" source="PlozlpM_31YKOJltgeHP-1" target="PlozlpM_31YKOJltgeHP-31" edge="1">
          <mxGeometry relative="1" as="geometry">
            <Array as="points">
              <mxPoint x="260" y="200" />
              <mxPoint x="60" y="200" />
              <mxPoint x="60" y="520" />
              <mxPoint x="230" y="520" />
            </Array>
          </mxGeometry>
        </mxCell>
        <mxCell id="PlozlpM_31YKOJltgeHP-57" value="7. View content" style="edgeLabel;html=1;align=center;verticalAlign=middle;resizable=0;points=[];fontSize=13;labelBackgroundColor=#E6E6E6;" parent="PlozlpM_31YKOJltgeHP-40" vertex="1" connectable="0">
          <mxGeometry x="0.06" y="-2" relative="1" as="geometry">
            <mxPoint as="offset" />
          </mxGeometry>
        </mxCell>
        <mxCell id="PlozlpM_31YKOJltgeHP-54" style="edgeStyle=orthogonalEdgeStyle;rounded=1;orthogonalLoop=1;jettySize=auto;html=1;exitX=0.5;exitY=1;exitDx=0;exitDy=0;curved=0;" parent="1" source="PlozlpM_31YKOJltgeHP-3" target="PlozlpM_31YKOJltgeHP-44" edge="1">
          <mxGeometry relative="1" as="geometry">
            <Array as="points">
              <mxPoint x="450" y="230" />
              <mxPoint x="450" y="230" />
            </Array>
          </mxGeometry>
        </mxCell>
        <mxCell id="PlozlpM_31YKOJltgeHP-56" value="1. Content Request" style="edgeLabel;html=1;align=center;verticalAlign=middle;resizable=0;points=[];labelBackgroundColor=#E6E6E6;fontSize=13;" parent="PlozlpM_31YKOJltgeHP-54" vertex="1" connectable="0">
          <mxGeometry x="0.0286" y="-4" relative="1" as="geometry">
            <mxPoint as="offset" />
          </mxGeometry>
        </mxCell>
        <mxCell id="PlozlpM_31YKOJltgeHP-26" value="" style="group" parent="1" vertex="1" connectable="0">
          <mxGeometry x="200" y="70" width="120" height="60" as="geometry" />
        </mxCell>
        <mxCell id="PlozlpM_31YKOJltgeHP-1" value="" style="rounded=1;whiteSpace=wrap;html=1;movable=1;resizable=1;rotatable=1;deletable=1;editable=1;locked=0;connectable=1;" parent="PlozlpM_31YKOJltgeHP-26" vertex="1">
          <mxGeometry width="120" height="60" as="geometry" />
        </mxCell>
        <mxCell id="PlozlpM_31YKOJltgeHP-2" value="" style="shape=image;verticalLabelPosition=bottom;labelBackgroundColor=default;verticalAlign=top;aspect=fixed;imageAspect=0;image=https://upload.wikimedia.org/wikipedia/commons/thumb/7/7b/Plex_logo_2022.svg/2560px-Plex_logo_2022.svg.png;movable=1;resizable=1;rotatable=1;deletable=1;editable=1;locked=0;connectable=1;" parent="PlozlpM_31YKOJltgeHP-26" vertex="1">
          <mxGeometry x="16.599999999999994" y="10" width="86.8" height="40" as="geometry" />
        </mxCell>
        <mxCell id="PlozlpM_31YKOJltgeHP-69" style="edgeStyle=orthogonalEdgeStyle;rounded=1;orthogonalLoop=1;jettySize=auto;html=1;exitX=0.5;exitY=1;exitDx=0;exitDy=0;entryX=0.5;entryY=0;entryDx=0;entryDy=0;curved=0;" parent="1" source="PlozlpM_31YKOJltgeHP-61" target="PlozlpM_31YKOJltgeHP-38" edge="1">
          <mxGeometry relative="1" as="geometry">
            <Array as="points">
              <mxPoint x="510" y="550" />
              <mxPoint x="510" y="550" />
            </Array>
          </mxGeometry>
        </mxCell>
        <mxCell id="PlozlpM_31YKOJltgeHP-70" value="&lt;span style=&quot;background-color: rgb(230, 230, 230);&quot;&gt;&lt;font style=&quot;font-size: 13px;&quot;&gt;4. Downloaded&lt;/font&gt;&lt;/span&gt;" style="edgeLabel;html=1;align=center;verticalAlign=middle;resizable=0;points=[];" parent="PlozlpM_31YKOJltgeHP-69" vertex="1" connectable="0">
          <mxGeometry x="0.0468" y="1" relative="1" as="geometry">
            <mxPoint as="offset" />
          </mxGeometry>
        </mxCell>
        <mxCell id="PlozlpM_31YKOJltgeHP-71" value="" style="group" parent="1" vertex="1" connectable="0">
          <mxGeometry x="600" y="380" width="160" height="60" as="geometry" />
        </mxCell>
        <mxCell id="PlozlpM_31YKOJltgeHP-72" value="" style="rounded=1;whiteSpace=wrap;html=1;" parent="PlozlpM_31YKOJltgeHP-71" vertex="1">
          <mxGeometry width="160" height="60" as="geometry" />
        </mxCell>
        <mxCell id="PlozlpM_31YKOJltgeHP-73" value="&lt;font style=&quot;font-size: 15px;&quot;&gt;Bazarr&lt;/font&gt;" style="text;html=1;strokeColor=none;fillColor=none;align=center;verticalAlign=middle;whiteSpace=wrap;rounded=0;" parent="PlozlpM_31YKOJltgeHP-71" vertex="1">
          <mxGeometry x="62.5" y="15" width="85" height="30" as="geometry" />
        </mxCell>
        <mxCell id="PlozlpM_31YKOJltgeHP-10" value="" style="shape=image;verticalLabelPosition=bottom;labelBackgroundColor=default;verticalAlign=top;aspect=fixed;imageAspect=0;image=https://user-images.githubusercontent.com/26902309/41456760-be00043e-7081-11e8-9646-1b724037b4ff.png;" parent="PlozlpM_31YKOJltgeHP-71" vertex="1">
          <mxGeometry x="12.5" y="5" width="50" height="50" as="geometry" />
        </mxCell>
        <mxCell id="PlozlpM_31YKOJltgeHP-75" style="edgeStyle=orthogonalEdgeStyle;rounded=1;orthogonalLoop=1;jettySize=auto;html=1;exitX=0.5;exitY=1;exitDx=0;exitDy=0;curved=0;" parent="1" source="PlozlpM_31YKOJltgeHP-72" target="PlozlpM_31YKOJltgeHP-39" edge="1">
          <mxGeometry relative="1" as="geometry" />
        </mxCell>
        <mxCell id="PlozlpM_31YKOJltgeHP-77" value="&lt;font style=&quot;font-size: 13px;&quot;&gt;6. Add subtitles&lt;/font&gt;" style="edgeLabel;html=1;align=center;verticalAlign=middle;resizable=0;points=[];labelBackgroundColor=#E6E6E6;" parent="PlozlpM_31YKOJltgeHP-75" vertex="1" connectable="0">
          <mxGeometry x="-0.0133" y="2" relative="1" as="geometry">
            <mxPoint as="offset" />
          </mxGeometry>
        </mxCell>
        <mxCell id="PlozlpM_31YKOJltgeHP-97" style="edgeStyle=orthogonalEdgeStyle;rounded=1;orthogonalLoop=1;jettySize=auto;html=1;exitX=0.5;exitY=0;exitDx=0;exitDy=0;entryX=0.825;entryY=1;entryDx=0;entryDy=0;entryPerimeter=0;endArrow=none;endFill=0;startArrow=classic;startFill=1;curved=0;" parent="1" source="PlozlpM_31YKOJltgeHP-72" target="PlozlpM_31YKOJltgeHP-44" edge="1">
          <mxGeometry relative="1" as="geometry" />
        </mxCell>
        <mxCell id="PlozlpM_31YKOJltgeHP-99" value="&lt;font style=&quot;font-size: 13px; background-color: rgb(230, 230, 230);&quot;&gt;5. Notify new content&lt;/font&gt;" style="edgeLabel;html=1;align=center;verticalAlign=middle;resizable=0;points=[];" parent="PlozlpM_31YKOJltgeHP-97" vertex="1" connectable="0">
          <mxGeometry x="-0.0819" y="-2" relative="1" as="geometry">
            <mxPoint x="-2" y="-2" as="offset" />
          </mxGeometry>
        </mxCell>
        <mxCell id="PlozlpM_31YKOJltgeHP-31" value="" style="rounded=0;whiteSpace=wrap;html=1;" parent="1" vertex="1">
          <mxGeometry x="40" y="560" width="760" height="120" as="geometry" />
        </mxCell>
        <mxCell id="PlozlpM_31YKOJltgeHP-32" value="OS and filesystem:" style="text;html=1;strokeColor=none;fillColor=none;align=center;verticalAlign=middle;whiteSpace=wrap;rounded=0;" parent="1" vertex="1">
          <mxGeometry x="40" y="560" width="120" height="30" as="geometry" />
        </mxCell>
        <mxCell id="PlozlpM_31YKOJltgeHP-38" value="&lt;font style=&quot;font-size: 15px;&quot;&gt;Media files&lt;/font&gt;" style="rounded=1;whiteSpace=wrap;html=1;" parent="1" vertex="1">
          <mxGeometry x="450" y="590" width="120" height="60" as="geometry" />
        </mxCell>
        <mxCell id="PlozlpM_31YKOJltgeHP-39" value="&lt;font style=&quot;font-size: 15px;&quot;&gt;Subtitles&lt;/font&gt;" style="rounded=1;whiteSpace=wrap;html=1;" parent="1" vertex="1">
          <mxGeometry x="620" y="590" width="120" height="60" as="geometry" />
        </mxCell>
        <mxCell id="PlozlpM_31YKOJltgeHP-28" value="Automation:" style="text;html=1;strokeColor=none;fillColor=none;align=center;verticalAlign=middle;whiteSpace=wrap;rounded=0;" parent="1" vertex="1">
          <mxGeometry x="120" y="240" width="90" height="30" as="geometry" />
        </mxCell>
        <mxCell id="PlozlpM_31YKOJltgeHP-43" value="" style="group" parent="1" vertex="1" connectable="0">
          <mxGeometry x="140" y="370" width="250" height="90" as="geometry" />
        </mxCell>
        <mxCell id="PlozlpM_31YKOJltgeHP-41" value="" style="rounded=0;whiteSpace=wrap;html=1;dashed=1;" parent="PlozlpM_31YKOJltgeHP-43" vertex="1">
          <mxGeometry width="250" height="90" as="geometry" />
        </mxCell>
        <mxCell id="PlozlpM_31YKOJltgeHP-42" value="Indexer:" style="text;html=1;strokeColor=none;fillColor=none;align=center;verticalAlign=middle;whiteSpace=wrap;rounded=0;" parent="PlozlpM_31YKOJltgeHP-43" vertex="1">
          <mxGeometry width="70.00000000000001" height="27" as="geometry" />
        </mxCell>
        <mxCell id="PlozlpM_31YKOJltgeHP-78" value="" style="group" parent="PlozlpM_31YKOJltgeHP-43" vertex="1" connectable="0">
          <mxGeometry x="70" y="15" width="160" height="60" as="geometry" />
        </mxCell>
        <mxCell id="PlozlpM_31YKOJltgeHP-88" value="" style="group" parent="PlozlpM_31YKOJltgeHP-78" vertex="1" connectable="0">
          <mxGeometry width="160" height="60" as="geometry" />
        </mxCell>
        <mxCell id="PlozlpM_31YKOJltgeHP-79" value="" style="rounded=1;whiteSpace=wrap;html=1;" parent="PlozlpM_31YKOJltgeHP-88" vertex="1">
          <mxGeometry width="160" height="60" as="geometry" />
        </mxCell>
        <mxCell id="PlozlpM_31YKOJltgeHP-80" value="&lt;font style=&quot;font-size: 15px;&quot;&gt;Prowlarr&lt;/font&gt;" style="text;html=1;strokeColor=none;fillColor=none;align=center;verticalAlign=middle;whiteSpace=wrap;rounded=0;" parent="PlozlpM_31YKOJltgeHP-88" vertex="1">
          <mxGeometry x="62.5" y="15" width="85" height="30" as="geometry" />
        </mxCell>
        <mxCell id="PlozlpM_31YKOJltgeHP-17" value="" style="shape=image;verticalLabelPosition=bottom;labelBackgroundColor=default;verticalAlign=top;aspect=fixed;imageAspect=0;image=https://static-00.iconduck.com/assets.00/prowlarr-icon-1024x1024-vyf0hy1t.png;" parent="PlozlpM_31YKOJltgeHP-88" vertex="1">
          <mxGeometry x="12.5" y="5" width="50" height="50" as="geometry" />
        </mxCell>
        <mxCell id="PlozlpM_31YKOJltgeHP-46" value="" style="group" parent="1" vertex="1" connectable="0">
          <mxGeometry x="210" y="260" width="570" height="80" as="geometry" />
        </mxCell>
        <mxCell id="PlozlpM_31YKOJltgeHP-44" value="" style="rounded=0;whiteSpace=wrap;html=1;dashed=1;" parent="PlozlpM_31YKOJltgeHP-46" vertex="1">
          <mxGeometry width="570" height="80" as="geometry" />
        </mxCell>
        <mxCell id="PlozlpM_31YKOJltgeHP-45" value="Content managers:" style="text;html=1;strokeColor=none;fillColor=none;align=center;verticalAlign=middle;whiteSpace=wrap;rounded=0;" parent="PlozlpM_31YKOJltgeHP-46" vertex="1">
          <mxGeometry width="130" height="30" as="geometry" />
        </mxCell>
        <mxCell id="PlozlpM_31YKOJltgeHP-89" style="edgeStyle=orthogonalEdgeStyle;rounded=0;orthogonalLoop=1;jettySize=auto;html=1;exitX=0.5;exitY=1;exitDx=0;exitDy=0;" parent="PlozlpM_31YKOJltgeHP-46" source="PlozlpM_31YKOJltgeHP-44" target="PlozlpM_31YKOJltgeHP-44" edge="1">
          <mxGeometry relative="1" as="geometry" />
        </mxCell>
        <mxCell id="PlozlpM_31YKOJltgeHP-111" value="" style="group" parent="PlozlpM_31YKOJltgeHP-46" vertex="1" connectable="0">
          <mxGeometry x="160" y="10" width="160" height="60" as="geometry" />
        </mxCell>
        <mxCell id="PlozlpM_31YKOJltgeHP-84" value="" style="rounded=1;whiteSpace=wrap;html=1;" parent="PlozlpM_31YKOJltgeHP-111" vertex="1">
          <mxGeometry width="160" height="60" as="geometry" />
        </mxCell>
        <mxCell id="PlozlpM_31YKOJltgeHP-85" value="&lt;font style=&quot;font-size: 15px;&quot;&gt;Radarr&lt;br&gt;&lt;/font&gt;" style="text;html=1;strokeColor=none;fillColor=none;align=center;verticalAlign=middle;whiteSpace=wrap;rounded=0;" parent="PlozlpM_31YKOJltgeHP-111" vertex="1">
          <mxGeometry x="62.5" y="15" width="85" height="30" as="geometry" />
        </mxCell>
        <mxCell id="PlozlpM_31YKOJltgeHP-18" value="" style="shape=image;verticalLabelPosition=bottom;labelBackgroundColor=default;verticalAlign=top;aspect=fixed;imageAspect=0;image=https://static-00.iconduck.com/assets.00/radarr-icon-462x512-bydv4e4f.png;" parent="PlozlpM_31YKOJltgeHP-111" vertex="1">
          <mxGeometry x="17.38" y="5" width="45.12" height="50" as="geometry" />
        </mxCell>
        <mxCell id="PlozlpM_31YKOJltgeHP-104" value="" style="group" parent="PlozlpM_31YKOJltgeHP-46" vertex="1" connectable="0">
          <mxGeometry x="360" y="10" width="160" height="60" as="geometry" />
        </mxCell>
        <mxCell id="PlozlpM_31YKOJltgeHP-109" value="" style="group" parent="PlozlpM_31YKOJltgeHP-104" vertex="1" connectable="0">
          <mxGeometry width="160" height="60" as="geometry" />
        </mxCell>
        <mxCell id="PlozlpM_31YKOJltgeHP-105" value="" style="rounded=1;whiteSpace=wrap;html=1;" parent="PlozlpM_31YKOJltgeHP-109" vertex="1">
          <mxGeometry width="160" height="60" as="geometry" />
        </mxCell>
        <mxCell id="PlozlpM_31YKOJltgeHP-106" value="&lt;font style=&quot;font-size: 15px;&quot;&gt;Sonarr&lt;/font&gt;" style="text;html=1;strokeColor=none;fillColor=none;align=center;verticalAlign=middle;whiteSpace=wrap;rounded=0;" parent="PlozlpM_31YKOJltgeHP-109" vertex="1">
          <mxGeometry x="62.5" y="15" width="85" height="30" as="geometry" />
        </mxCell>
        <mxCell id="PlozlpM_31YKOJltgeHP-19" value="" style="shape=image;verticalLabelPosition=bottom;labelBackgroundColor=default;verticalAlign=top;aspect=fixed;imageAspect=0;image=https://static-00.iconduck.com/assets.00/sonarr-icon-1024x1024-wkay604k.png;" parent="PlozlpM_31YKOJltgeHP-109" vertex="1">
          <mxGeometry x="12.5" y="5" width="50" height="50" as="geometry" />
        </mxCell>
        <mxCell id="PlozlpM_31YKOJltgeHP-64" value="" style="group" parent="1" vertex="1" connectable="0">
          <mxGeometry x="430" y="380" width="160" height="60" as="geometry" />
        </mxCell>
        <mxCell id="PlozlpM_31YKOJltgeHP-65" value="" style="group" parent="PlozlpM_31YKOJltgeHP-64" vertex="1" connectable="0">
          <mxGeometry width="160" height="60" as="geometry" />
        </mxCell>
        <mxCell id="PlozlpM_31YKOJltgeHP-61" value="" style="rounded=1;whiteSpace=wrap;html=1;" parent="PlozlpM_31YKOJltgeHP-65" vertex="1">
          <mxGeometry width="160" height="60" as="geometry" />
        </mxCell>
        <mxCell id="PlozlpM_31YKOJltgeHP-20" value="" style="shape=image;verticalLabelPosition=bottom;labelBackgroundColor=default;verticalAlign=top;aspect=fixed;imageAspect=0;image=https://static-00.iconduck.com/assets.00/qbittorrent-icon-2048x2048-4u7bykpn.png;" parent="PlozlpM_31YKOJltgeHP-65" vertex="1">
          <mxGeometry x="12" y="5.5" width="49" height="49" as="geometry" />
        </mxCell>
        <mxCell id="PlozlpM_31YKOJltgeHP-62" value="&lt;font style=&quot;font-size: 15px;&quot;&gt;qBittorrent&lt;/font&gt;" style="text;html=1;strokeColor=none;fillColor=none;align=center;verticalAlign=middle;whiteSpace=wrap;rounded=0;" parent="PlozlpM_31YKOJltgeHP-65" vertex="1">
          <mxGeometry x="70" y="15" width="80" height="30" as="geometry" />
        </mxCell>
        <mxCell id="PlozlpM_31YKOJltgeHP-91" style="edgeStyle=orthogonalEdgeStyle;rounded=1;orthogonalLoop=1;jettySize=auto;html=1;exitX=0.25;exitY=1;exitDx=0;exitDy=0;entryX=0.5;entryY=0;entryDx=0;entryDy=0;curved=0;" parent="1" source="PlozlpM_31YKOJltgeHP-44" target="PlozlpM_31YKOJltgeHP-41" edge="1">
          <mxGeometry relative="1" as="geometry">
            <Array as="points">
              <mxPoint x="353" y="350" />
              <mxPoint x="265" y="350" />
            </Array>
          </mxGeometry>
        </mxCell>
        <mxCell id="PlozlpM_31YKOJltgeHP-94" value="&lt;span style=&quot;background-color: rgb(230, 230, 230);&quot;&gt;&lt;font style=&quot;font-size: 13px;&quot;&gt;2. Search&lt;/font&gt;&lt;/span&gt;" style="edgeLabel;html=1;align=center;verticalAlign=middle;resizable=0;points=[];" parent="PlozlpM_31YKOJltgeHP-91" vertex="1" connectable="0">
          <mxGeometry x="-0.0894" y="2" relative="1" as="geometry">
            <mxPoint as="offset" />
          </mxGeometry>
        </mxCell>
        <mxCell id="PlozlpM_31YKOJltgeHP-95" style="edgeStyle=orthogonalEdgeStyle;rounded=0;orthogonalLoop=1;jettySize=auto;html=1;exitX=0.5;exitY=0;exitDx=0;exitDy=0;entryX=0.525;entryY=0.981;entryDx=0;entryDy=0;entryPerimeter=0;startArrow=classic;startFill=1;endArrow=none;endFill=0;" parent="1" source="PlozlpM_31YKOJltgeHP-61" target="PlozlpM_31YKOJltgeHP-44" edge="1">
          <mxGeometry relative="1" as="geometry" />
        </mxCell>
        <mxCell id="PlozlpM_31YKOJltgeHP-96" value="&lt;font style=&quot;font-size: 13px; background-color: rgb(230, 230, 230);&quot;&gt;3. Download command&lt;/font&gt;" style="edgeLabel;html=1;align=center;verticalAlign=middle;resizable=0;points=[];" parent="PlozlpM_31YKOJltgeHP-95" vertex="1" connectable="0">
          <mxGeometry x="0.0043" relative="1" as="geometry">
            <mxPoint as="offset" />
          </mxGeometry>
        </mxCell>
        <mxCell id="PlozlpM_31YKOJltgeHP-101" value="" style="rounded=1;whiteSpace=wrap;html=1;fillColor=#d5e8d4;strokeColor=#82b366;strokeWidth=1;" parent="1" vertex="1">
          <mxGeometry x="40" y="700" width="220" height="60" as="geometry" />
        </mxCell>
        <mxCell id="PlozlpM_31YKOJltgeHP-102" value="&lt;font style=&quot;font-size: 15px;&quot;&gt;Gluetun VPN client&lt;/font&gt;" style="text;html=1;strokeColor=none;fillColor=none;align=center;verticalAlign=middle;whiteSpace=wrap;rounded=0;" parent="1" vertex="1">
          <mxGeometry x="102.5" y="715" width="167.5" height="30" as="geometry" />
        </mxCell>
        <mxCell id="PlozlpM_31YKOJltgeHP-21" value="" style="shape=image;verticalLabelPosition=bottom;labelBackgroundColor=default;verticalAlign=top;aspect=fixed;imageAspect=0;image=https://raw.githubusercontent.com/qdm12/gluetun/master/title.svg;" parent="1" vertex="1">
          <mxGeometry x="50" y="707.94" width="57" height="44.12" as="geometry" />
        </mxCell>
        <mxCell id="2ypCShfPb-I65MygXm0y-1" value="" style="rounded=0;whiteSpace=wrap;html=1;fillColor=#d5e8d4;strokeColor=none;opacity=45;" parent="1" vertex="1">
          <mxGeometry x="120" y="240" width="680" height="240" as="geometry" />
        </mxCell>
      </root>
    </mxGraphModel>
  </diagram>
</mxfile>
